HIERARCHY
ROOT root
{
	OFFSET 0.000000 0.000000 0.000000
	CHANNELS 6 Xposition Yposition Zposition Zrotation Yrotation Xrotation
	JOINT lhip
	{
		OFFSET 0.058581 -0.082280 -0.017664
		CHANNELS 3 Zrotation Yrotation Xrotation
		JOINT lknee
		{
			OFFSET 0.043451 -0.386469 0.008037
			CHANNELS 3 Zrotation Yrotation Xrotation
			JOINT lankle
			{
				OFFSET -0.014790 -0.426874 -0.037428
				CHANNELS 3 Zrotation Yrotation Xrotation
				JOINT ltoe
				{
					OFFSET 0.041054 -0.060286 0.122042
					CHANNELS 3 Zrotation Yrotation Xrotation
					End Site
					{
						OFFSET 0.000000 0.000000 0.000000
					}
				}
			}
		}
	}
	JOINT rhip
	{
		OFFSET -0.060310 -0.090513 -0.013543
		CHANNELS 3 Zrotation Yrotation Xrotation
		JOINT rknee
		{
			OFFSET -0.043257 -0.383688 -0.004843
			CHANNELS 3 Zrotation Yrotation Xrotation
			JOINT rankle
			{
				OFFSET 0.019056 -0.420046 -0.034562
				CHANNELS 3 Zrotation Yrotation Xrotation
				JOINT rtoe
				{
					OFFSET -0.034840 -0.062106 0.130323
					CHANNELS 3 Zrotation Yrotation Xrotation
					End Site
					{
						OFFSET 0.000000 0.000000 0.000000
					}
				}
			}
		}
	}
	JOINT lowerback
	{
		OFFSET 0.004439 0.124404 -0.038385
		CHANNELS 3 Zrotation Yrotation Xrotation
		JOINT upperback
		{
			OFFSET 0.004488 0.137956 0.026820
			CHANNELS 3 Zrotation Yrotation Xrotation
			JOINT chest
			{
				OFFSET -0.002265 0.056032 0.002855
				CHANNELS 3 Zrotation Yrotation Xrotation
				JOINT lowerneck
				{
					OFFSET -0.013390 0.211636 -0.033468
					CHANNELS 3 Zrotation Yrotation Xrotation
					JOINT upperneck
					{
						OFFSET 0.010113 0.088937 0.050410
						CHANNELS 3 Zrotation Yrotation Xrotation
						End Site
						{
							OFFSET 0.000000 0.000000 0.000000
						}
					}
				}
				JOINT lclavicle
				{
					OFFSET 0.071702 0.114000 -0.018898
					CHANNELS 3 Zrotation Yrotation Xrotation
					JOINT lshoulder
					{
						OFFSET 0.122921 0.045205 -0.019046
						CHANNELS 3 Zrotation Yrotation Xrotation
						JOINT lelbow
						{
							OFFSET 0.255332 -0.015649 -0.022946
							CHANNELS 3 Zrotation Yrotation Xrotation
							JOINT lwrist
							{
								OFFSET 0.265709 0.012698 -0.007375
								CHANNELS 3 Zrotation Yrotation Xrotation
								End Site
								{
									OFFSET 0.000000 0.000000 0.000000
								}
							}
						}
					}
				}
				JOINT rclavicle
				{
					OFFSET -0.082954 0.112472 -0.023707
					CHANNELS 3 Zrotation Yrotation Xrotation
					JOINT rshoulder
					{
						OFFSET -0.113228 0.046853 -0.008472
						CHANNELS 3 Zrotation Yrotation Xrotation
						JOINT relbow
						{
							OFFSET -0.260127 -0.014369 -0.031269
							CHANNELS 3 Zrotation Yrotation Xrotation
							JOINT rwrist
							{
								OFFSET -0.269108 0.006794 -0.006027
								CHANNELS 3 Zrotation Yrotation Xrotation
								End Site
								{
									OFFSET 0.000000 0.000000 0.000000
								}
							}
						}
					}
				}
			}
		}
	}
}
MOTION
Frames: 5
Frame Time: 0.033333
0.024631 0.225983 0.994357 89.566432 0.281634 92.019720 5.791203 1.576389 -9.549506 -3.390283 -6.893967 14.857319 1.029412 9.876930 -8.472976 0.000000 -0.000000 0.000000 -5.133767 -2.591405 -8.571356 1.604757 3.765816 12.501489 4.482847 -4.466721 -7.169955 0.000000 -0.000000 0.000000 -0.669314 2.649365 3.145998 -1.044931 -2.367898 11.735983 -3.553178 3.837983 -11.948428 -7.338236 -15.033440 10.381669 -0.650866 4.223918 20.024742 -31.689959 -9.128343 6.203124 -43.200278 4.897380 16.534504 4.030242 -43.878848 21.159128 -11.891278 -10.747592 0.666365 26.531557 17.511137 6.727748 4.573097 34.814300 -13.607240 3.724113 71.254370 29.258188 -4.839113 11.797523 51.449074 
0.024777 0.225512 0.994315 89.542884 0.291080 91.966508 5.791665 1.602229 -9.456349 -3.373196 -6.956444 14.865458 1.052212 9.984204 -8.520596 0.000000 -0.000000 0.000000 -5.092095 -2.559201 -8.507174 1.598102 3.739959 12.519613 4.448863 -4.462680 -7.222853 0.000000 -0.000000 0.000000 -0.736388 2.703257 3.106011 -1.029565 -2.217238 11.824969 -3.538305 3.833110 -11.921518 -7.182858 -14.934402 10.323897 -0.657878 4.125666 19.998869 -31.542149 -9.091460 6.096308 -43.389707 4.847061 16.438917 3.991743 -44.026929 20.998382 -11.570712 -10.310226 1.025068 26.692822 17.809919 7.142178 6.019229 35.600767 -11.835979 12.242054 70.503383 38.595615 -4.706655 11.848781 51.871631 
0.024911 0.225121 0.994226 89.559644 0.282657 91.904465 5.789681 1.663909 -9.364353 -3.378442 -7.082425 14.824893 1.029310 10.033108 -8.454213 0.000000 -0.000000 0.000000 -5.059094 -2.556264 -8.453719 1.563138 3.733563 12.591650 4.400697 -4.462167 -7.283270 0.000000 -0.000000 0.000000 -0.766309 2.667998 3.018219 -1.069033 -2.253611 12.100351 -3.579391 3.962381 -11.953855 -7.008594 -14.739024 10.202741 -0.632186 3.885622 19.853356 -31.306242 -9.174527 5.938813 -43.613933 4.879990 16.322655 3.964988 -43.921462 20.763127 -10.796522 -10.031219 1.068624 27.029355 18.359734 7.701652 7.535277 35.965440 -9.981096 18.958195 69.272003 46.216289 -5.763892 12.739388 52.231536 
0.024951 0.224760 0.994130 89.629068 0.306680 91.895711 5.811447 1.630096 -9.358035 -3.367125 -7.143622 14.841724 1.075805 10.009740 -8.429245 0.000000 -0.000000 0.000000 -5.003132 -2.465207 -8.403131 1.526358 3.615486 12.559335 4.361026 -4.512386 -7.281158 0.000000 -0.000000 0.000000 -0.838773 2.721552 3.185024 -0.956567 -2.114331 11.934340 -3.488680 3.885860 -11.949003 -6.744805 -14.588566 10.008552 -0.835465 3.622232 19.888089 -31.113685 -9.044444 5.828418 -43.923581 4.806713 16.342970 3.959627 -43.894749 20.649337 -10.975164 -10.099540 1.124207 27.319864 18.507007 8.081045 9.422772 36.454863 -7.951144 24.004242 68.058022 52.111363 -5.468169 12.249219 52.297759 
0.025400 0.224491 0.994254 89.542471 0.321320 91.907189 5.781517 1.742313 -9.226228 -3.285385 -7.164546 14.689193 1.084112 10.004908 -8.469084 0.000000 -0.000000 0.000000 -4.971780 -2.416557 -8.363074 1.491091 3.569249 12.517821 4.357042 -4.401954 -7.277012 0.000000 -0.000000 0.000000 -0.838804 2.711266 2.961318 -0.941389 -2.015392 12.150310 -3.449978 3.938483 -11.874618 -6.550205 -14.319717 9.921465 -0.931898 3.378115 19.655451 -31.129707 -9.152352 5.845617 -44.068674 4.863063 16.134485 4.170396 -44.004926 20.096691 -11.372413 -9.905310 1.535479 27.781787 18.972184 8.665367 10.901882 36.518347 -6.393463 27.478021 66.972841 55.740082 -4.859322 12.085919 52.406815 
